<svg id="svg" version="1.1" xmlns="http://www.w3.org/2000/svg" xmlns:xlink="http://www.w3.org/1999/xlink" width="40" height="40" viewBox="0, 0, 400,400"><g id="svgg"><path id="path0" d="M80.000 57.500 L 80.000 65.000 72.500 65.000 L 65.000 65.000 65.000 72.500 L 65.000 80.000 57.500 80.000 L 50.000 80.000 50.000 215.000 L 50.000 350.000 185.000 350.000 L 320.000 350.000 320.000 342.500 L 320.000 335.000 327.500 335.000 L 335.000 335.000 335.000 327.500 L 335.000 320.000 342.500 320.000 L 350.000 320.000 350.000 185.000 L 350.000 50.000 215.000 50.000 L 80.000 50.000 80.000 57.500 M345.000 185.000 L 345.000 315.000 340.000 315.000 L 335.000 315.000 335.000 190.000 L 335.000 65.000 210.000 65.000 L 85.000 65.000 85.000 60.000 L 85.000 55.000 215.000 55.000 L 345.000 55.000 345.000 185.000 M80.000 75.000 L 80.000 80.000 75.000 80.000 L 70.000 80.000 70.000 75.000 L 70.000 70.000 75.000 70.000 L 80.000 70.000 80.000 75.000 M330.000 192.500 L 330.000 315.000 325.000 315.000 L 320.000 315.000 320.000 197.500 L 320.000 80.000 202.500 80.000 L 85.000 80.000 85.000 75.000 L 85.000 70.000 207.500 70.000 L 330.000 70.000 330.000 192.500 M65.000 210.000 L 65.000 335.000 190.000 335.000 L 315.000 335.000 315.000 340.000 L 315.000 345.000 185.000 345.000 L 55.000 345.000 55.000 215.000 L 55.000 85.000 60.000 85.000 L 65.000 85.000 65.000 210.000 M80.000 202.500 L 80.000 320.000 197.500 320.000 L 315.000 320.000 315.000 325.000 L 315.000 330.000 192.500 330.000 L 70.000 330.000 70.000 207.500 L 70.000 85.000 75.000 85.000 L 80.000 85.000 80.000 202.500 M315.000 200.000 L 315.000 315.000 200.000 315.000 L 85.000 315.000 85.000 200.000 L 85.000 85.000 200.000 85.000 L 315.000 85.000 315.000 200.000 M176.504 126.017 C 173.516 127.537,172.476 128.808,171.361 132.302 C 170.807 134.036,171.020 205.387,171.580 206.063 C 171.808 206.337,171.917 206.639,171.822 206.733 C 171.728 206.828,171.879 207.095,172.159 207.327 C 172.438 207.559,172.667 207.898,172.667 208.080 C 172.667 208.519,175.158 211.000,175.600 211.000 C 175.789 211.000,175.997 211.158,176.062 211.351 C 176.126 211.545,176.401 211.737,176.673 211.778 C 176.944 211.819,177.346 211.964,177.565 212.101 C 177.948 212.340,212.304 212.447,213.333 212.212 C 216.424 211.507,219.552 208.309,220.207 205.185 C 220.286 204.808,220.348 200.900,220.345 196.500 L 220.339 188.500 221.546 187.167 C 222.209 186.433,223.122 185.052,223.575 184.098 L 224.397 182.363 233.654 182.265 L 242.911 182.167 243.944 181.061 L 244.976 179.955 244.994 163.514 C 245.017 141.798,246.593 144.000,231.025 144.000 L 220.318 144.000 220.349 138.225 C 220.388 131.219,219.721 129.189,216.607 126.833 C 214.169 124.989,214.564 125.023,195.835 125.012 L 178.500 125.002 176.504 126.017 M212.716 128.178 C 214.390 128.749,216.898 131.075,217.216 132.353 C 217.328 132.800,217.490 133.804,217.576 134.583 L 217.734 136.000 195.867 136.000 L 174.000 136.000 174.002 134.917 C 174.007 131.690,176.301 128.655,179.146 128.109 C 179.502 128.041,179.864 127.913,179.952 127.826 C 180.425 127.353,211.268 127.685,212.716 128.178 M188.285 130.556 C 186.342 131.073,187.870 133.337,190.158 133.329 C 192.495 133.321,193.000 133.055,193.000 131.833 C 193.000 130.465,190.835 129.879,188.285 130.556 M196.083 130.832 C 194.635 132.477,195.964 133.333,199.964 133.333 C 203.717 133.333,204.503 132.870,203.708 131.125 C 203.266 130.153,196.896 129.909,196.083 130.832 M217.667 141.309 L 217.667 143.952 210.734 144.059 C 200.379 144.220,201.304 142.332,201.327 163.247 C 201.349 183.556,200.899 182.333,208.357 182.333 L 212.414 182.333 212.245 184.417 C 212.152 185.563,211.732 187.532,211.310 188.793 C 210.270 191.909,211.496 192.783,215.000 191.421 C 215.458 191.243,216.246 190.998,216.750 190.876 L 217.667 190.654 217.667 193.327 L 217.667 196.000 195.833 196.000 L 174.000 196.000 174.000 167.333 L 174.000 138.667 195.833 138.667 L 217.667 138.667 217.667 141.309 M241.724 147.552 C 242.297 148.071,242.333 149.003,242.333 163.366 L 242.333 178.629 241.592 179.148 C 240.965 179.587,239.433 179.667,231.587 179.667 L 222.323 179.667 221.856 180.750 C 221.599 181.346,221.154 182.376,220.867 183.038 C 220.210 184.554,218.060 186.723,216.163 187.783 C 214.585 188.665,214.161 188.611,214.704 187.598 C 214.894 187.241,215.109 185.649,215.181 184.058 C 215.376 179.726,215.349 179.705,209.531 179.644 C 206.591 179.613,204.740 179.456,204.469 179.214 C 203.756 178.577,203.802 148.245,204.518 147.530 C 205.342 146.705,240.812 146.726,241.724 147.552 M222.600 149.511 C 222.538 149.573,222.116 149.684,221.661 149.759 C 218.411 150.295,215.933 152.999,215.515 156.466 C 214.925 161.355,214.893 161.523,214.277 163.000 C 213.343 165.240,213.065 165.898,212.727 166.667 C 211.800 168.772,212.754 171.838,214.269 171.621 C 216.140 171.353,220.333 171.741,220.333 172.182 C 220.333 174.676,224.722 174.985,225.645 172.556 C 225.956 171.738,229.391 171.238,232.064 171.621 C 232.191 171.639,232.741 171.208,233.285 170.663 C 234.567 169.382,234.456 168.142,232.774 164.917 C 232.511 164.412,232.396 164.000,232.519 164.000 C 232.643 164.000,232.518 163.656,232.243 163.237 C 231.729 162.452,231.162 159.990,230.880 157.324 C 230.486 153.600,228.102 150.466,225.167 149.815 C 224.117 149.583,222.697 149.414,222.600 149.511 M226.342 153.842 C 227.565 155.036,227.761 155.570,228.173 158.841 C 228.536 161.717,228.730 162.791,228.976 163.275 C 229.132 163.582,229.485 164.358,229.761 165.000 C 230.473 166.655,231.115 168.125,231.254 168.417 C 231.319 168.554,227.764 168.667,223.353 168.667 C 214.617 168.667,214.656 168.676,215.872 166.822 C 216.168 166.370,216.320 166.000,216.210 166.000 C 216.101 166.000,216.323 165.400,216.706 164.667 L 217.401 163.333 221.137 163.333 C 225.399 163.333,226.189 163.036,225.821 161.570 C 225.696 161.073,225.423 160.658,225.214 160.647 C 225.005 160.636,223.283 160.644,221.388 160.666 L 217.943 160.705 218.154 158.602 C 218.734 152.843,222.862 150.443,226.342 153.842 M178.345 185.645 C 177.090 187.991,178.304 191.261,180.166 190.546 C 180.911 190.261,180.887 185.489,180.139 185.202 C 179.224 184.851,178.701 184.980,178.345 185.645 M185.605 185.241 C 184.543 185.492,184.320 189.440,185.324 190.239 C 186.657 191.302,187.667 190.245,187.667 187.786 C 187.667 185.544,187.130 184.881,185.605 185.241 M192.012 185.645 C 190.756 187.991,191.971 191.261,193.833 190.546 C 194.577 190.261,194.554 185.489,193.806 185.202 C 192.890 184.851,192.368 184.980,192.012 185.645 M199.272 185.241 C 198.209 185.492,197.987 189.440,198.991 190.239 C 200.324 191.302,201.333 190.245,201.333 187.786 C 201.333 185.544,200.796 184.881,199.272 185.241 M205.694 185.615 C 205.208 186.524,205.235 189.768,205.733 190.267 C 206.242 190.775,207.554 190.785,207.865 190.283 C 208.064 189.961,208.092 185.647,207.896 185.451 C 207.382 184.938,206.002 185.040,205.694 185.615 M217.636 201.636 C 217.575 204.493,216.451 207.425,215.139 208.148 C 214.788 208.342,214.422 208.603,214.327 208.729 C 213.726 209.522,211.316 209.644,195.881 209.660 C 178.100 209.680,178.461 209.715,176.300 207.765 C 174.450 206.096,174.000 204.904,174.000 201.677 L 174.000 199.000 195.846 199.000 L 217.693 199.000 217.636 201.636 M194.468 201.822 C 193.395 202.419,192.997 203.129,193.060 204.333 C 193.242 207.807,198.015 208.054,198.557 204.617 C 198.880 202.570,196.297 200.804,194.468 201.822 M258.655 234.340 C 258.090 234.690,258.096 234.655,258.042 237.500 L 258.000 239.667 256.167 239.667 C 254.433 239.667,254.333 239.712,254.333 240.500 C 254.333 241.288,254.433 241.333,256.167 241.333 L 258.000 241.333 258.011 247.083 C 258.022 253.373,258.020 253.364,260.108 254.640 C 261.488 255.482,266.276 255.524,267.100 254.700 C 267.302 254.498,267.668 254.333,267.914 254.333 C 268.668 254.333,269.703 253.150,269.473 252.550 C 269.204 251.850,268.576 251.854,267.233 252.565 C 265.040 253.727,262.060 253.906,260.844 252.948 C 260.002 252.287,260.000 252.271,260.000 246.809 L 260.000 241.333 264.023 241.333 C 268.005 241.333,268.045 241.326,267.940 240.583 C 267.837 239.860,267.692 239.830,263.917 239.739 L 260.000 239.646 260.000 237.197 C 260.000 234.630,259.591 233.762,258.655 234.340 M171.859 238.835 C 170.956 239.293,169.962 239.900,169.648 240.183 C 169.174 240.613,169.004 240.625,168.623 240.254 C 163.917 235.669,154.697 242.603,159.281 247.280 C 160.409 248.430,160.535 248.694,160.122 249.037 C 158.273 250.571,158.022 252.753,159.593 253.632 C 160.024 253.873,159.974 254.081,159.253 255.041 C 156.335 258.923,158.503 261.904,164.258 261.924 C 169.382 261.941,172.186 260.126,172.038 256.888 C 171.898 253.818,170.526 253.070,164.867 252.974 C 158.966 252.874,159.084 249.886,165.000 249.625 C 167.933 249.495,170.188 248.170,170.597 246.336 C 171.030 244.390,170.685 242.137,169.871 241.601 C 169.659 241.462,169.781 241.286,170.176 241.160 C 170.538 241.045,171.067 240.829,171.353 240.679 C 171.639 240.529,172.727 240.230,173.770 240.013 C 174.813 239.797,175.667 239.492,175.667 239.337 C 175.667 237.795,174.272 237.611,171.859 238.835 M211.750 239.363 C 210.787 239.739,210.000 240.186,210.000 240.357 C 210.000 240.527,209.758 240.667,209.461 240.667 C 209.090 240.667,208.975 240.463,209.094 240.012 C 209.298 239.231,208.525 238.895,207.119 239.152 C 204.872 239.563,204.535 239.673,204.280 240.076 C 203.781 240.863,204.228 241.167,205.784 241.097 L 207.333 241.028 207.333 250.681 L 207.333 260.333 206.400 260.333 C 205.320 260.333,204.641 260.878,204.895 261.541 C 205.033 261.900,206.075 262.000,209.702 262.000 L 214.333 262.000 214.333 261.167 C 214.333 260.352,214.278 260.333,211.833 260.333 L 209.333 260.333 209.333 256.820 L 209.333 253.307 210.045 253.970 C 213.875 257.539,220.958 254.686,222.002 249.155 C 223.400 241.746,218.248 236.826,211.750 239.363 M107.083 239.586 C 105.733 239.892,105.000 240.224,105.000 240.529 C 105.000 240.788,105.002 241.112,105.004 241.250 C 105.010 241.589,106.329 241.608,107.250 241.282 L 108.000 241.017 108.000 247.175 L 108.000 253.333 106.917 253.338 C 105.183 253.347,104.305 254.480,105.752 254.842 C 107.725 255.336,112.500 254.858,112.500 254.167 C 112.500 253.634,112.243 253.479,111.220 253.395 L 109.941 253.290 110.054 248.386 C 110.175 243.114,110.475 242.200,112.445 241.095 C 114.848 239.747,115.455 241.204,115.667 248.833 L 115.833 254.833 117.966 254.934 C 120.226 255.040,120.822 254.792,120.475 253.889 C 120.320 253.485,119.855 253.333,118.766 253.333 L 117.271 253.333 117.408 248.583 C 117.515 244.876,117.674 243.595,118.131 242.748 C 119.339 240.511,121.986 240.017,122.520 241.929 C 122.905 243.310,122.895 243.136,122.949 249.250 L 123.000 255.000 125.294 255.000 C 127.283 255.000,127.611 254.914,127.758 254.355 C 127.948 253.626,127.437 253.333,125.973 253.333 L 125.000 253.333 124.974 248.250 C 124.946 242.644,124.951 242.688,124.198 240.929 C 122.987 238.100,117.413 238.725,117.319 241.700 C 117.310 241.957,117.018 241.625,116.668 240.964 C 115.461 238.680,112.820 238.421,111.013 240.408 C 110.138 241.370,110.018 241.418,110.010 240.814 C 109.989 239.329,109.368 239.068,107.083 239.586 M137.000 239.430 C 136.358 239.652,135.629 239.965,135.379 240.126 C 134.692 240.569,133.636 243.186,133.862 243.885 C 134.700 246.480,136.043 247.241,141.333 248.122 C 144.828 248.704,145.945 249.608,145.476 251.475 C 144.563 255.114,135.678 253.745,135.087 249.875 C 134.681 247.213,133.620 248.745,133.587 252.043 C 133.556 255.035,134.271 255.922,135.205 254.049 C 135.513 253.431,135.656 253.364,135.881 253.731 C 138.016 257.209,147.322 255.233,147.488 251.266 C 147.621 248.075,146.200 246.860,141.333 246.004 C 136.523 245.159,135.676 244.573,136.206 242.462 C 136.934 239.560,144.801 240.462,145.625 243.541 C 146.224 245.783,147.158 244.749,147.264 241.725 C 147.359 239.013,147.344 238.952,146.611 239.058 C 146.145 239.126,145.773 239.482,145.630 240.000 C 145.503 240.458,145.385 240.670,145.367 240.470 C 145.265 239.365,139.325 238.626,137.000 239.430 M234.333 239.430 C 233.692 239.652,232.962 239.965,232.712 240.126 C 232.026 240.569,230.970 243.186,231.195 243.885 C 232.033 246.480,233.376 247.241,238.667 248.122 C 242.161 248.704,243.278 249.608,242.810 251.475 C 241.896 255.114,233.011 253.745,232.420 249.875 C 232.014 247.213,230.953 248.745,230.920 252.043 C 230.890 255.035,231.604 255.922,232.538 254.049 C 232.846 253.431,232.989 253.364,233.214 253.731 C 235.349 257.209,244.655 255.233,244.821 251.266 C 244.955 248.075,243.534 246.860,238.667 246.004 C 233.857 245.159,233.009 244.573,233.539 242.462 C 234.268 239.560,242.135 240.462,242.958 243.541 C 243.558 245.783,244.491 244.749,244.597 241.725 C 244.692 239.013,244.677 238.952,243.944 239.058 C 243.478 239.126,243.107 239.482,242.964 240.000 C 242.837 240.458,242.718 240.670,242.700 240.470 C 242.599 239.365,236.659 238.626,234.333 239.430 M283.606 239.172 C 283.499 239.279,282.628 239.471,280.784 239.795 C 280.056 239.923,279.374 240.717,279.564 241.214 C 279.751 241.701,281.868 241.660,282.687 241.154 C 282.878 241.036,283.000 243.380,283.000 247.147 L 283.000 253.333 280.869 253.333 C 278.755 253.333,278.239 253.615,278.577 254.583 C 278.687 254.898,280.388 255.000,285.551 255.000 L 292.380 255.000 292.273 254.250 C 292.171 253.532,292.013 253.496,288.583 253.405 L 285.000 253.311 285.000 248.945 C 285.000 242.973,286.084 241.441,290.750 240.822 L 292.333 240.612 292.333 242.306 C 292.333 243.741,292.429 244.000,292.959 244.000 C 294.006 244.000,294.375 243.186,294.267 241.111 L 294.167 239.167 291.492 239.198 C 288.864 239.229,286.611 240.075,285.842 241.320 C 285.434 241.979,284.617 241.695,284.680 240.917 C 284.778 239.708,284.694 239.415,284.199 239.225 C 283.942 239.127,283.675 239.103,283.606 239.172 M217.267 241.132 C 221.093 243.111,221.206 250.339,217.451 252.847 C 215.618 254.071,212.712 253.757,210.417 252.087 L 209.333 251.299 209.333 247.313 C 209.333 243.410,209.352 243.308,210.250 242.407 C 212.201 240.449,214.972 239.946,217.267 241.132 M166.858 241.425 C 169.702 242.899,169.240 247.544,166.233 247.706 C 165.830 247.728,164.975 247.773,164.333 247.805 C 159.935 248.030,158.323 242.781,162.288 241.146 C 163.472 240.658,165.631 240.790,166.858 241.425 M187.667 252.000 C 185.823 253.844,188.417 256.338,190.592 254.814 C 191.067 254.482,191.333 253.950,191.333 253.333 C 191.333 251.548,188.976 250.691,187.667 252.000 M168.748 255.138 C 170.545 255.806,170.679 258.435,168.963 259.353 C 163.729 262.155,157.285 258.550,161.333 255.085 C 161.931 254.574,167.335 254.612,168.748 255.138 M330.000 325.000 L 330.000 330.000 325.000 330.000 L 320.000 330.000 320.000 325.000 L 320.000 320.000 325.000 320.000 L 330.000 320.000 330.000 325.000 " stroke="none" fill="#ececec" fill-rule="evenodd"></path><path id="path1" d="M187.940 127.916 C 192.398 127.969,199.598 127.969,203.940 127.916 C 208.281 127.864,204.633 127.821,195.833 127.821 C 187.033 127.821,183.481 127.864,187.940 127.916 M220.467 139.167 C 220.467 141.917,220.519 142.997,220.581 141.568 C 220.644 140.139,220.644 137.889,220.581 136.568 C 220.517 135.247,220.466 136.417,220.467 139.167 M184.941 135.917 C 191.050 135.967,200.950 135.967,206.941 135.916 C 212.932 135.866,207.933 135.824,195.833 135.824 C 183.733 135.824,178.832 135.866,184.941 135.917 M201.154 163.333 C 201.154 171.858,201.197 175.346,201.250 171.083 C 201.302 166.821,201.302 159.846,201.250 155.583 C 201.197 151.321,201.154 154.808,201.154 163.333 M242.154 163.333 C 242.154 171.858,242.197 175.346,242.250 171.083 C 242.302 166.821,242.302 159.846,242.250 155.583 C 242.197 151.321,242.154 154.808,242.154 163.333 M219.583 160.579 C 220.546 160.646,222.121 160.646,223.083 160.579 C 224.046 160.512,223.258 160.457,221.333 160.457 C 219.408 160.457,218.621 160.512,219.583 160.579 M206.750 182.580 C 207.804 182.646,209.529 182.646,210.583 182.580 C 211.637 182.514,210.775 182.459,208.667 182.459 C 206.558 182.459,205.696 182.514,206.750 182.580 M228.397 182.582 C 230.724 182.639,234.624 182.640,237.064 182.583 C 239.504 182.526,237.600 182.479,232.833 182.479 C 228.067 182.478,226.070 182.525,228.397 182.582 M180.762 187.833 C 180.765 188.750,180.829 189.085,180.906 188.579 C 180.982 188.072,180.980 187.322,180.901 186.912 C 180.822 186.502,180.760 186.917,180.762 187.833 M194.429 187.833 C 194.431 188.750,194.496 189.085,194.573 188.579 C 194.649 188.072,194.647 187.322,194.568 186.912 C 194.489 186.502,194.426 186.917,194.429 187.833 M208.095 187.833 C 208.098 188.750,208.163 189.085,208.239 188.579 C 208.316 188.072,208.314 187.322,208.235 186.912 C 208.156 186.502,208.093 186.917,208.095 187.833 M220.476 195.667 C 220.476 199.792,220.524 201.479,220.582 199.417 C 220.641 197.354,220.641 193.979,220.582 191.917 C 220.524 189.854,220.476 191.542,220.476 195.667 M187.940 212.583 C 192.398 212.636,199.598 212.636,203.940 212.583 C 208.281 212.530,204.633 212.487,195.833 212.487 C 187.033 212.488,183.481 212.531,187.940 212.583 M115.470 248.833 C 115.469 251.950,115.519 253.270,115.581 251.766 C 115.643 250.263,115.643 247.713,115.582 246.100 C 115.521 244.487,115.470 245.717,115.470 248.833 M117.464 249.000 C 117.464 251.475,117.516 252.487,117.581 251.250 C 117.645 250.012,117.645 247.987,117.581 246.750 C 117.516 245.512,117.464 246.525,117.464 249.000 M133.443 251.833 C 133.444 253.117,133.504 253.601,133.577 252.909 C 133.649 252.218,133.648 251.168,133.574 250.576 C 133.500 249.984,133.441 250.550,133.443 251.833 M230.776 251.833 C 230.778 253.117,230.838 253.601,230.910 252.909 C 230.982 252.218,230.981 251.168,230.907 250.576 C 230.834 249.984,230.775 250.550,230.776 251.833 " stroke="none" fill="#f0ecec" fill-rule="evenodd"></path><path id="path2" d="M187.940 127.916 C 192.398 127.969,199.598 127.969,203.940 127.916 C 208.281 127.864,204.633 127.821,195.833 127.821 C 187.033 127.821,183.481 127.864,187.940 127.916 M220.467 139.167 C 220.467 141.917,220.519 142.997,220.581 141.568 C 220.644 140.139,220.644 137.889,220.581 136.568 C 220.517 135.247,220.466 136.417,220.467 139.167 M184.941 135.917 C 191.050 135.967,200.950 135.967,206.941 135.916 C 212.932 135.866,207.933 135.824,195.833 135.824 C 183.733 135.824,178.832 135.866,184.941 135.917 M201.154 163.333 C 201.154 171.858,201.197 175.346,201.250 171.083 C 201.302 166.821,201.302 159.846,201.250 155.583 C 201.197 151.321,201.154 154.808,201.154 163.333 M242.154 163.333 C 242.154 171.858,242.197 175.346,242.250 171.083 C 242.302 166.821,242.302 159.846,242.250 155.583 C 242.197 151.321,242.154 154.808,242.154 163.333 M219.583 160.579 C 220.546 160.646,222.121 160.646,223.083 160.579 C 224.046 160.512,223.258 160.457,221.333 160.457 C 219.408 160.457,218.621 160.512,219.583 160.579 M206.750 182.580 C 207.804 182.646,209.529 182.646,210.583 182.580 C 211.637 182.514,210.775 182.459,208.667 182.459 C 206.558 182.459,205.696 182.514,206.750 182.580 M228.397 182.582 C 230.724 182.639,234.624 182.640,237.064 182.583 C 239.504 182.526,237.600 182.479,232.833 182.479 C 228.067 182.478,226.070 182.525,228.397 182.582 M180.762 187.833 C 180.765 188.750,180.829 189.085,180.906 188.579 C 180.982 188.072,180.980 187.322,180.901 186.912 C 180.822 186.502,180.760 186.917,180.762 187.833 M194.429 187.833 C 194.431 188.750,194.496 189.085,194.573 188.579 C 194.649 188.072,194.647 187.322,194.568 186.912 C 194.489 186.502,194.426 186.917,194.429 187.833 M208.095 187.833 C 208.098 188.750,208.163 189.085,208.239 188.579 C 208.316 188.072,208.314 187.322,208.235 186.912 C 208.156 186.502,208.093 186.917,208.095 187.833 M220.476 195.667 C 220.476 199.792,220.524 201.479,220.582 199.417 C 220.641 197.354,220.641 193.979,220.582 191.917 C 220.524 189.854,220.476 191.542,220.476 195.667 M187.940 212.583 C 192.398 212.636,199.598 212.636,203.940 212.583 C 208.281 212.530,204.633 212.487,195.833 212.487 C 187.033 212.488,183.481 212.531,187.940 212.583 M115.470 248.833 C 115.469 251.950,115.519 253.270,115.581 251.766 C 115.643 250.263,115.643 247.713,115.582 246.100 C 115.521 244.487,115.470 245.717,115.470 248.833 M117.464 249.000 C 117.464 251.475,117.516 252.487,117.581 251.250 C 117.645 250.012,117.645 247.987,117.581 246.750 C 117.516 245.512,117.464 246.525,117.464 249.000 M133.443 251.833 C 133.444 253.117,133.504 253.601,133.577 252.909 C 133.649 252.218,133.648 251.168,133.574 250.576 C 133.500 249.984,133.441 250.550,133.443 251.833 M230.776 251.833 C 230.778 253.117,230.838 253.601,230.910 252.909 C 230.982 252.218,230.981 251.168,230.907 250.576 C 230.834 249.984,230.775 250.550,230.776 251.833 " stroke="none" fill="#f0ecec" fill-rule="evenodd"></path><path id="path3" d="M187.940 127.916 C 192.398 127.969,199.598 127.969,203.940 127.916 C 208.281 127.864,204.633 127.821,195.833 127.821 C 187.033 127.821,183.481 127.864,187.940 127.916 M220.467 139.167 C 220.467 141.917,220.519 142.997,220.581 141.568 C 220.644 140.139,220.644 137.889,220.581 136.568 C 220.517 135.247,220.466 136.417,220.467 139.167 M184.941 135.917 C 191.050 135.967,200.950 135.967,206.941 135.916 C 212.932 135.866,207.933 135.824,195.833 135.824 C 183.733 135.824,178.832 135.866,184.941 135.917 M201.154 163.333 C 201.154 171.858,201.197 175.346,201.250 171.083 C 201.302 166.821,201.302 159.846,201.250 155.583 C 201.197 151.321,201.154 154.808,201.154 163.333 M242.154 163.333 C 242.154 171.858,242.197 175.346,242.250 171.083 C 242.302 166.821,242.302 159.846,242.250 155.583 C 242.197 151.321,242.154 154.808,242.154 163.333 M219.583 160.579 C 220.546 160.646,222.121 160.646,223.083 160.579 C 224.046 160.512,223.258 160.457,221.333 160.457 C 219.408 160.457,218.621 160.512,219.583 160.579 M206.750 182.580 C 207.804 182.646,209.529 182.646,210.583 182.580 C 211.637 182.514,210.775 182.459,208.667 182.459 C 206.558 182.459,205.696 182.514,206.750 182.580 M228.397 182.582 C 230.724 182.639,234.624 182.640,237.064 182.583 C 239.504 182.526,237.600 182.479,232.833 182.479 C 228.067 182.478,226.070 182.525,228.397 182.582 M180.762 187.833 C 180.765 188.750,180.829 189.085,180.906 188.579 C 180.982 188.072,180.980 187.322,180.901 186.912 C 180.822 186.502,180.760 186.917,180.762 187.833 M194.429 187.833 C 194.431 188.750,194.496 189.085,194.573 188.579 C 194.649 188.072,194.647 187.322,194.568 186.912 C 194.489 186.502,194.426 186.917,194.429 187.833 M208.095 187.833 C 208.098 188.750,208.163 189.085,208.239 188.579 C 208.316 188.072,208.314 187.322,208.235 186.912 C 208.156 186.502,208.093 186.917,208.095 187.833 M220.476 195.667 C 220.476 199.792,220.524 201.479,220.582 199.417 C 220.641 197.354,220.641 193.979,220.582 191.917 C 220.524 189.854,220.476 191.542,220.476 195.667 M187.940 212.583 C 192.398 212.636,199.598 212.636,203.940 212.583 C 208.281 212.530,204.633 212.487,195.833 212.487 C 187.033 212.488,183.481 212.531,187.940 212.583 M115.470 248.833 C 115.469 251.950,115.519 253.270,115.581 251.766 C 115.643 250.263,115.643 247.713,115.582 246.100 C 115.521 244.487,115.470 245.717,115.470 248.833 M117.464 249.000 C 117.464 251.475,117.516 252.487,117.581 251.250 C 117.645 250.012,117.645 247.987,117.581 246.750 C 117.516 245.512,117.464 246.525,117.464 249.000 M133.443 251.833 C 133.444 253.117,133.504 253.601,133.577 252.909 C 133.649 252.218,133.648 251.168,133.574 250.576 C 133.500 249.984,133.441 250.550,133.443 251.833 M230.776 251.833 C 230.778 253.117,230.838 253.601,230.910 252.909 C 230.982 252.218,230.981 251.168,230.907 250.576 C 230.834 249.984,230.775 250.550,230.776 251.833 " stroke="none" fill="#f0ecec" fill-rule="evenodd"></path><path id="path4" d="M187.940 127.916 C 192.398 127.969,199.598 127.969,203.940 127.916 C 208.281 127.864,204.633 127.821,195.833 127.821 C 187.033 127.821,183.481 127.864,187.940 127.916 M220.467 139.167 C 220.467 141.917,220.519 142.997,220.581 141.568 C 220.644 140.139,220.644 137.889,220.581 136.568 C 220.517 135.247,220.466 136.417,220.467 139.167 M184.941 135.917 C 191.050 135.967,200.950 135.967,206.941 135.916 C 212.932 135.866,207.933 135.824,195.833 135.824 C 183.733 135.824,178.832 135.866,184.941 135.917 M201.154 163.333 C 201.154 171.858,201.197 175.346,201.250 171.083 C 201.302 166.821,201.302 159.846,201.250 155.583 C 201.197 151.321,201.154 154.808,201.154 163.333 M242.154 163.333 C 242.154 171.858,242.197 175.346,242.250 171.083 C 242.302 166.821,242.302 159.846,242.250 155.583 C 242.197 151.321,242.154 154.808,242.154 163.333 M219.583 160.579 C 220.546 160.646,222.121 160.646,223.083 160.579 C 224.046 160.512,223.258 160.457,221.333 160.457 C 219.408 160.457,218.621 160.512,219.583 160.579 M206.750 182.580 C 207.804 182.646,209.529 182.646,210.583 182.580 C 211.637 182.514,210.775 182.459,208.667 182.459 C 206.558 182.459,205.696 182.514,206.750 182.580 M228.397 182.582 C 230.724 182.639,234.624 182.640,237.064 182.583 C 239.504 182.526,237.600 182.479,232.833 182.479 C 228.067 182.478,226.070 182.525,228.397 182.582 M180.762 187.833 C 180.765 188.750,180.829 189.085,180.906 188.579 C 180.982 188.072,180.980 187.322,180.901 186.912 C 180.822 186.502,180.760 186.917,180.762 187.833 M194.429 187.833 C 194.431 188.750,194.496 189.085,194.573 188.579 C 194.649 188.072,194.647 187.322,194.568 186.912 C 194.489 186.502,194.426 186.917,194.429 187.833 M208.095 187.833 C 208.098 188.750,208.163 189.085,208.239 188.579 C 208.316 188.072,208.314 187.322,208.235 186.912 C 208.156 186.502,208.093 186.917,208.095 187.833 M220.476 195.667 C 220.476 199.792,220.524 201.479,220.582 199.417 C 220.641 197.354,220.641 193.979,220.582 191.917 C 220.524 189.854,220.476 191.542,220.476 195.667 M187.940 212.583 C 192.398 212.636,199.598 212.636,203.940 212.583 C 208.281 212.530,204.633 212.487,195.833 212.487 C 187.033 212.488,183.481 212.531,187.940 212.583 M115.470 248.833 C 115.469 251.950,115.519 253.270,115.581 251.766 C 115.643 250.263,115.643 247.713,115.582 246.100 C 115.521 244.487,115.470 245.717,115.470 248.833 M117.464 249.000 C 117.464 251.475,117.516 252.487,117.581 251.250 C 117.645 250.012,117.645 247.987,117.581 246.750 C 117.516 245.512,117.464 246.525,117.464 249.000 M133.443 251.833 C 133.444 253.117,133.504 253.601,133.577 252.909 C 133.649 252.218,133.648 251.168,133.574 250.576 C 133.500 249.984,133.441 250.550,133.443 251.833 M230.776 251.833 C 230.778 253.117,230.838 253.601,230.910 252.909 C 230.982 252.218,230.981 251.168,230.907 250.576 C 230.834 249.984,230.775 250.550,230.776 251.833 " stroke="none" fill="#f0ecec" fill-rule="evenodd"></path></g></svg>